<svg width="75" height="75" viewBox="0 0 75 75" xmlns="http://www.w3.org/2000/svg" xmlns:xlink="http://www.w3.org/1999/xlink" id="Product_Icon" overflow="hidden"><rect x="0" y="0" width="75" height="75" id="Pink_Light_BG" fill="#CC2264"/><g id="Product_Icon-2"><path d="M36.5 16 36.5 25.45 38.5 25.45 38.5 16 43.16 20.65 44.57 19.24 38.21 12.87C37.8211 12.4779 37.1879 12.4753 36.7958 12.8642 36.7939 12.8661 36.7919 12.8681 36.79 12.87L30.43 19.24 31.84 20.65Z" fill="#FFFFFF"/><path d="M38.5 59 38.5 49.43 36.5 49.43 36.5 59 31.84 54.34 30.43 55.76 36.79 62.12C37.1789 62.5121 37.8121 62.5147 38.2042 62.1258 38.2061 62.1239 38.2081 62.1219 38.21 62.12L44.57 55.76 43.16 54.34Z" fill="#FFFFFF"/><path d="M18.77 30.42 17.36 31.84 22 36.43 12.5 36.43 12.5 38.43 22.09 38.43 17.36 43.15 18.77 44.56 25.14 38.2C25.5277 37.81 25.5277 37.18 25.14 36.79Z" fill="#FFFFFF"/><path d="M62.5 36.43 53.05 36.43 57.64 31.84 56.22 30.42 49.86 36.79C49.4723 37.18 49.4723 37.81 49.86 38.2L56.22 44.56 57.64 43.15 52.91 38.43 62.5 38.43Z" fill="#FFFFFF"/><path d="M46 32.05 38 27.55C37.6906 27.3714 37.3094 27.3714 37 27.55L29 32.05C28.6855 32.2268 28.4906 32.5592 28.49 32.92L28.49 41.92C28.4906 42.2808 28.6855 42.6132 29 42.79L37 47.28C37.1454 47.3656 37.3112 47.4105 37.48 47.41 37.649 47.4121 37.8152 47.3671 37.96 47.28L45.96 42.79C46.2745 42.6132 46.4694 42.2808 46.47 41.92L46.47 32.92C46.4777 32.5674 46.2991 32.2368 46 32.05ZM37.5 29.59 43.5 32.97 37.5 36.45 31.5 32.97ZM30.5 34.71 36.5 38.18 36.5 44.68 30.5 41.31ZM38.5 44.71 38.5 38.19 44.5 34.71 44.5 41.31Z" fill="#FFFFFF"/></g></svg>