<svg width="75" height="75" viewBox="0 0 75 75" xmlns="http://www.w3.org/2000/svg" xmlns:xlink="http://www.w3.org/1999/xlink" id="Product_Icon" overflow="hidden"><rect x="0" y="0" width="75" height="75" id="Pink_Light_BG" fill="#CC2264"/><g id="Product_Icon-2"><path d="M61.5 61.5 54.5 61.5 54.5 59.5 60.5 59.5 60.5 15.5 14.5 15.5 14.5 59.5 42.5 59.5 42.5 61.5 13.5 61.5C12.9477 61.5 12.5 61.0523 12.5 60.5L12.5 14.5C12.5 13.9477 12.9477 13.5 13.5 13.5L61.5 13.5C62.0523 13.5 62.5 13.9477 62.5 14.5L62.5 60.5C62.5 61.0523 62.0523 61.5 61.5 61.5Z" fill="#FFFFFF"/><rect x="13.5" y="21.5" width="48" height="2" fill="#FFFFFF"/><rect x="16.5" y="17.5" width="2" height="2" fill="#FFFFFF"/><rect x="20.5" y="17.5" width="2" height="2" fill="#FFFFFF"/><rect x="24.5" y="17.5" width="2" height="2" fill="#FFFFFF"/><path d="M24 50.81 22.59 49.39 31.48 40.51 22.59 31.62 24 30.2 33.6 39.8C33.7872 39.9887 33.8915 40.2442 33.89 40.51 33.8889 40.7723 33.7847 41.0237 33.6 41.21Z" fill="#FFFFFF"/><rect x="35.5" y="45.5" width="15" height="2" fill="#FFFFFF"/></g></svg>