<svg width="75" height="75" viewBox="0 0 75 75" xmlns="http://www.w3.org/2000/svg" xmlns:xlink="http://www.w3.org/1999/xlink" id="Product_Icon" overflow="hidden"><defs><linearGradient x1="112.5" y1="37.5" x2="-37.5" y2="37.5" gradientUnits="userSpaceOnUse" id="PurpleGradient" gradientTransform="matrix(-0.707107 0.707107 -0.707107 -0.707107 90.53 37.5)"><stop offset="0" stop-color="#4D27A8"/><stop offset="1" stop-color="#A166FF"/></linearGradient></defs><rect x="0" y="0" width="75" height="75" id="Purple_Gradient" fill="url(#PurpleGradient)"/><g id="Icon_Test"><path d="M46.14 60.67 44.36 59.75C45.3085 57.9461 46.0692 56.0494 46.63 54.09L48.55 54.65C47.953 56.7333 47.1455 58.7503 46.14 60.67ZM48 42.36C47.654 36.7606 45.8361 31.3517 42.73 26.68L44.4 25.59C47.701 30.5497 49.6329 36.2935 50 42.24ZM34.81 18.23C33.3587 17.1462 31.8124 16.1956 30.19 15.39L31.1 13.61C32.827 14.4597 34.4737 15.4638 36.02 16.61Z" fill="#FFFFFF"/><path d="M43 44.9C39.8436 41.765 36.0276 39.3736 31.83 37.9L32.45 36C36.9206 37.5691 40.9856 40.114 44.35 43.45Z" fill="#FFFFFF"/><path d="M51.24 56.84C50.87 55.84 50.45 54.92 49.99 53.99L51.78 53.1C52.2732 54.0771 52.7171 55.0784 53.11 56.1Z" fill="#FFFFFF"/><path d="M45.57 61.15 44.93 59.26C47.3256 58.4526 49.5673 57.2456 51.56 55.69L52.79 57.27C50.6198 58.9618 48.1785 60.2737 45.57 61.15Z" fill="#FFFFFF"/><path d="M13.78 37 13.32 35.06C15.5374 34.5169 17.8076 34.2185 20.09 34.17L20.14 36.17C17.9961 36.2139 15.8634 36.4922 13.78 37Z" fill="#FFFFFF"/><path d="M30.18 30.64 28.5 29.55C29.9679 27.1659 31.7771 25.0097 33.87 23.15L35.19 24.66C33.2356 26.3967 31.5475 28.4116 30.18 30.64Z" fill="#FFFFFF"/><path d="M45.05 18.78 44.37 16.9C45.8752 16.3357 47.4236 15.8943 49 15.58L49.37 17.58C47.8991 17.8591 46.4541 18.2605 45.05 18.78Z" fill="#FFFFFF"/><path d="M25.25 59C23.6156 55.2069 22.7424 51.1297 22.68 47 22.7131 45.4087 22.921 43.8259 23.3 42.28 23.37 41.93 23.45 41.57 23.52 41.2L25.52 41.59C25.45 41.97 25.37 42.33 25.3 42.69 24.9506 44.1013 24.7561 45.5465 24.72 47 24.7653 50.8798 25.5741 54.7126 27.1 58.28Z" fill="#FFFFFF"/><path d="M37.5 62.5C23.6929 62.5 12.5 51.3071 12.5 37.5 12.5 36.99 12.5 36.5 12.55 35.99 13.1831 25.5091 20.2979 16.5407 30.36 13.54 36.8399 11.6127 43.8242 12.392 49.72 15.7 61.7632 22.4527 66.052 37.6897 59.2993 49.7329 57.658 52.66 55.4443 55.2267 52.79 57.28 48.4044 60.6509 43.0314 62.4853 37.5 62.5ZM37.5 14.5C35.2726 14.5072 33.0586 14.8442 30.93 15.5 21.6828 18.2594 15.1414 26.498 14.55 36.13 14.55 36.6 14.5 37.05 14.5 37.5 14.5 50.2025 24.7975 60.5 37.5 60.5 40.0252 60.5039 42.5333 60.0848 44.92 59.26 47.3197 58.4551 49.5651 57.2479 51.56 55.69 61.6061 47.9162 63.4481 33.4704 55.6744 23.4244 51.3219 17.7996 44.6121 14.5048 37.5 14.5Z" fill="#FFFFFF"/><path d="M39.93 25.93C37.4834 25.93 35.5 23.9466 35.5 21.5 35.5 19.0534 37.4834 17.07 39.93 17.07 42.3766 17.07 44.36 19.0534 44.36 21.5 44.36 21.5033 44.36 21.5067 44.36 21.51 44.36 23.9511 42.3811 25.93 39.94 25.93 39.9367 25.93 39.9333 25.93 39.93 25.93ZM39.93 19.08C38.5879 19.08 37.5 20.1679 37.5 21.51 37.5 22.8521 38.5879 23.94 39.93 23.94 41.2721 23.94 42.36 22.8521 42.36 21.51 42.36 20.1679 41.2721 19.08 39.93 19.08Z" fill="#FFFFFF"/><path d="M26.29 39.88C23.8434 39.88 21.86 37.8966 21.86 35.45 21.86 33.0034 23.8434 31.02 26.29 31.02 28.7366 31.02 30.72 33.0034 30.72 35.45 30.7145 37.8943 28.7343 39.8745 26.29 39.88ZM26.29 33.02C24.9479 33.02 23.86 34.1079 23.86 35.45 23.86 36.7921 24.9479 37.88 26.29 37.88 27.6321 37.88 28.72 36.7921 28.72 35.45 28.731 34.108 27.6521 33.0111 26.3101 33.0001 26.3034 33 26.2967 33 26.29 33Z" fill="#FFFFFF"/><path d="M48.28 52.7C45.8334 52.7055 43.8455 50.7266 43.84 48.28 43.8345 45.8334 45.8134 43.8455 48.26 43.84 50.7066 43.8345 52.6945 45.8134 52.7 48.26 52.7 48.2667 52.7 48.2733 52.7 48.28 52.7 50.7211 50.7211 52.7 48.28 52.7ZM48.28 45.85C46.938 45.8445 45.8455 46.9279 45.84 48.27 45.8345 49.612 46.918 50.7044 48.26 50.71 49.602 50.7155 50.6945 49.632 50.7 48.29 50.7 48.2867 50.7 48.2833 50.7 48.28 50.7 46.9418 49.6181 45.8555 48.28 45.85Z" fill="#FFFFFF"/></g></svg>