<svg width="50" height="50" viewBox="0 0 50 50" xmlns="http://www.w3.org/2000/svg" xmlns:xlink="http://www.w3.org/1999/xlink" id="Layer_1" overflow="hidden"><path d="M25 48.5C12.0213 48.5 1.5 37.9787 1.5 25 1.5 12.0213 12.0213 1.5 25 1.5 37.9787 1.5 48.5 12.0213 48.5 25 48.489 37.9741 37.9741 48.489 25 48.5ZM25 3.5C13.1259 3.5 3.5 13.1259 3.5 25 3.5 36.8741 13.1259 46.5 25 46.5 36.8741 46.5 46.5 36.8741 46.5 25 46.489 13.1304 36.8696 3.51103 25 3.5Z" fill="#693CC5"/><path d="M27.81 38.19 19.57 38.19 19.57 36.19 26.81 36.19 26.81 15.69 19.57 15.69 19.57 13.69 27.81 13.69C28.3623 13.69 28.81 14.1377 28.81 14.69L28.81 37.19C28.81 37.7423 28.3623 38.19 27.81 38.19Z" fill="#693CC5"/><rect x="19.37" y="24.94" width="17.81" height="2" fill="#693CC5"/><path d="M12.81 19.44C12.661 19.4391 12.5141 19.405 12.38 19.34 12.0327 19.1746 11.8111 18.8247 11.81 18.44L11.81 10.94C11.8111 10.5553 12.0327 10.2054 12.38 10.04 12.7269 9.87246 13.1393 9.91914 13.44 10.16L18.12 13.91C18.3587 14.0986 18.4986 14.3857 18.5 14.69 18.4986 14.9943 18.3587 15.2814 18.12 15.47L13.44 19.22C13.2614 19.3633 13.039 19.441 12.81 19.44ZM13.81 13.02 13.81 16.36 15.9 14.69Z" fill="#693CC5"/><path d="M12.81 30.69C12.661 30.6891 12.5141 30.655 12.38 30.59 12.0327 30.4246 11.8111 30.0747 11.81 29.69L11.81 22.19C11.8111 21.8053 12.0327 21.4554 12.38 21.29 12.7269 21.1225 13.1393 21.1691 13.44 21.41L18.12 25.16C18.3587 25.3486 18.4986 25.6357 18.5 25.94 18.4986 26.2443 18.3587 26.5314 18.12 26.72L13.44 30.47C13.2614 30.6133 13.039 30.691 12.81 30.69ZM13.81 24.27 13.81 27.61 15.9 25.94Z" fill="#693CC5"/><path d="M38.12 31.62C37.9901 31.6201 37.8613 31.5964 37.74 31.55 37.3632 31.3952 37.118 31.0273 37.12 30.62L37.12 21.25C37.1168 20.6977 37.5619 20.2474 38.1142 20.2442 38.3828 20.2426 38.6408 20.3492 38.83 20.54L43.52 25.23C43.9077 25.62 43.9077 26.25 43.52 26.64L38.83 31.33C38.6413 31.5172 38.3858 31.6215 38.12 31.62ZM39.12 23.62 39.12 28.17 41.4 25.9Z" fill="#693CC5"/><path d="M12.81 41C12.661 40.9991 12.5141 40.965 12.38 40.9 12.0327 40.7346 11.8111 40.3847 11.81 40L11.81 32.5C11.8081 31.9477 12.2543 31.4985 12.8066 31.4966 13.0372 31.4958 13.2609 31.5747 13.44 31.72L18.12 35.47C18.5508 35.8156 18.6198 36.445 18.2742 36.8758 18.2286 36.9327 18.1769 36.9844 18.12 37.03L13.44 40.78C13.2614 40.9233 13.039 41.001 12.81 41ZM13.81 34.58 13.81 37.92 15.9 36.25Z" fill="#693CC5"/><path d="M72 204-79 204-84.45 271.5-223 271.5-230-354 72-354 72 204Z" stroke="#A166FF" stroke-width="3" stroke-miterlimit="10" fill="none"/></svg>