<svg width="75" height="75" viewBox="0 0 75 75" xmlns="http://www.w3.org/2000/svg" xmlns:xlink="http://www.w3.org/1999/xlink" id="Product_Icon" overflow="hidden"><rect x="0" y="0" width="75" height="75" id="Purple_Light_BG" fill="#693CC5"/><g id="Product_Icon-2"><path d="M36.44 46.52 22.44 46.52C16.96 46.52 12.77 42.86 12.49 37.83 12.49 37.62 12.49 37.38 12.49 37.14 12.3147 32.8425 15.1309 28.9934 19.28 27.86 19.28 27.59 19.28 27.33 19.28 27.06 19.4211 19.5282 25.6413 13.5368 33.1731 13.6779 36.7693 13.7453 40.1934 15.2304 42.7 17.81 44.0086 19.1053 45.0724 20.6264 45.84 22.3 46.9371 21.4186 48.3026 20.9387 49.71 20.94 52.61 20.94 55.71 23.01 56.22 27.62 58.6843 28.1075 60.9075 29.4238 62.52 31.35L60.95 32.58C59.4527 30.8669 57.3918 29.746 55.14 29.42 54.6764 29.3456 54.3269 28.9588 54.3 28.49 54.07 24.66 51.83 22.94 49.71 22.94 48.3604 22.9526 47.0947 23.5965 46.29 24.68 46.0712 24.9716 45.711 25.1211 45.35 25.07 44.9874 25.0146 44.6842 24.7652 44.56 24.42 43.8754 22.476 42.765 20.7096 41.31 19.25 36.8256 14.6361 29.4499 14.5312 24.8361 19.0157 22.6562 21.1344 21.3908 24.0212 21.31 27.06 21.3114 27.5377 21.3381 28.0151 21.39 28.49 21.4398 28.9833 21.1207 29.4386 20.64 29.56 18.37 30.12 14.54 31.86 14.54 37.14 14.53 37.3199 14.53 37.5001 14.54 37.68 14.76 41.68 18.11 44.52 22.54 44.52L36.54 44.52Z" fill="#FFFFFF"/><path d="M50.44 61.26C38.58 61.26 38.44 47.93 38.44 47.8L38.44 35.63C38.4386 35.2115 38.698 34.8365 39.09 34.69L50.09 30.62C50.3165 30.5399 50.5635 30.5399 50.79 30.62L61.79 34.69C62.182 34.8365 62.4414 35.2115 62.44 35.63L62.44 48.55C62.44 48.68 62.3 61.26 50.44 61.26ZM40.44 36.33 40.44 47.8C40.44 48.27 40.58 59.26 50.44 59.26 60.3 59.26 60.44 48.99 60.44 48.55L60.44 36.33 50.44 32.62Z" fill="#FFFFFF"/><path d="M50.44 57.52C44.08 57.52 42.52 49.45 42.44 49.11 42.4301 49.0504 42.4301 48.9896 42.44 48.93L42.44 38.57C42.4396 38.1602 42.6893 37.7916 43.07 37.64L50.07 34.88C50.3076 34.7854 50.5724 34.7854 50.81 34.88L57.81 37.64C58.1907 37.7916 58.4404 38.1602 58.44 38.57L58.44 48.93C58.4449 48.9899 58.4449 49.0501 58.44 49.11 58.36 49.45 56.8 57.52 50.44 57.52ZM44.44 48.83C44.6 49.59 46.03 55.52 50.44 55.52 54.85 55.52 56.28 49.6 56.44 48.83L56.44 39.25 50.44 36.89 44.44 39.25Z" fill="#FFFFFF"/></g></svg>