<svg width="50" height="50" viewBox="0 0 50 50" xmlns="http://www.w3.org/2000/svg" xmlns:xlink="http://www.w3.org/1999/xlink" id="Layer_1" overflow="hidden"><path d="M29 11.74 25 7.79 21.05 11.79 19.64 10.38 24.29 5.72C24.6789 5.32788 25.3121 5.32528 25.7042 5.7142 25.7061 5.71613 25.7081 5.71806 25.71 5.72L30.36 10.38Z" fill="#693CC5"/><rect x="24" y="32.47" width="2" height="10.41" fill="#693CC5"/><rect x="24" y="7.12" width="2" height="9.6" fill="#693CC5"/><path d="M25 44.62C24.7342 44.6215 24.4787 44.5172 24.29 44.33L19.64 39.67 21.05 38.26 25 42.26 28.95 38.26 30.36 39.67 25.71 44.33C25.5213 44.5172 25.2658 44.6215 25 44.62Z" fill="#693CC5"/><path d="M39.67 30.36 38.26 29 42.26 25.05 38.26 21.1 39.67 19.69 44.33 24.34C44.7221 24.7289 44.7247 25.3621 44.3358 25.7542 44.3339 25.7561 44.3319 25.7581 44.33 25.76Z" fill="#693CC5"/><rect x="7.12" y="24" width="7.15" height="2" fill="#693CC5"/><rect x="35.7" y="24" width="7.18" height="2" fill="#693CC5"/><path d="M10.33 30.36 5.67 25.71C5.27788 25.3211 5.27528 24.6879 5.6642 24.2958 5.66613 24.2939 5.66806 24.2919 5.67 24.29L10.33 19.64 11.74 21.05 7.79 25 11.79 28.95Z" fill="#693CC5"/><path d="M25 48.5C12.0213 48.5 1.5 37.9787 1.5 25 1.5 12.0213 12.0213 1.5 25 1.5 37.9787 1.5 48.5 12.0213 48.5 25 48.489 37.9741 37.9741 48.489 25 48.5ZM25 3.5C13.1259 3.5 3.5 13.1259 3.5 25 3.5 36.8741 13.1259 46.5 25 46.5 36.8741 46.5 46.5 36.8741 46.5 25 46.489 13.1304 36.8696 3.51103 25 3.5Z" fill="#693CC5"/><path d="M30.28 30.66 20.11 30.66C17.9702 30.6941 16.1437 29.1211 15.86 27 15.86 26.91 15.86 26.83 15.86 26.74 15.802 25.2158 16.6827 23.8115 18.08 23.2 18.2049 21.2626 19.3733 19.5464 21.13 18.72 23.092 17.8649 25.3785 18.315 26.87 19.85 27.1855 20.1464 27.4611 20.4826 27.69 20.85 29.1218 20.3112 30.7193 21.0351 31.2581 22.4669 31.323 22.6395 31.3706 22.818 31.4 23 33.0619 23.4555 34.1975 24.9875 34.15 26.71 34.2847 28.7269 32.7589 30.471 30.742 30.6057 30.6049 30.6149 30.4673 30.6163 30.33 30.61ZM23.2 20.29C22.7496 20.2908 22.304 20.3826 21.89 20.56 20.808 21.0922 20.1053 22.1751 20.06 23.38 20.06 23.51 20.06 23.64 20.06 23.77 20.1213 24.2674 19.805 24.7335 19.32 24.86 18.4137 25.003 17.767 25.8147 17.83 26.73L17.83 26.88C18.0444 27.9434 18.9958 28.6961 20.08 28.66L30.17 28.66C32.17 28.66 32.17 27.22 32.17 26.75 32.17 26.28 32.17 25.19 30.32 24.81 29.8756 24.7201 29.5473 24.3426 29.52 23.89 29.52 23.15 29.16 22.68 28.7 22.68 28.4697 22.69 28.2563 22.804 28.12 22.99 27.7884 23.4317 27.1616 23.5209 26.7199 23.1893 26.5643 23.0725 26.4462 22.9129 26.38 22.73 26.1904 22.1804 25.8833 21.6788 25.48 21.26 24.8754 20.6519 24.0574 20.3039 23.2 20.29Z" fill="#693CC5"/><path d="M72 134-79 134-84.45 201.5-223 201.5-230-424 72-424 72 134Z" stroke="#A166FF" stroke-width="3" stroke-miterlimit="10" fill="none"/></svg>