<svg viewBox="0 0 50 50" xmlns="http://www.w3.org/2000/svg" xmlns:xlink="http://www.w3.org/1999/xlink" overflow="hidden"><defs></defs><g id="Reference"><path d="M25 50C11.1929 50 0 38.8071 0 25 -0 11.1929 11.1929 -0 25 -0 38.8071 -0 50 11.1929 50 25 50 38.8071 38.8071 50 25 50ZM25 2C12.2975 2 2 12.2975 2 25 2 37.7025 12.2975 48 25 48 37.7025 48 48 37.7025 48 25 48 12.2975 37.7025 2 25 2Z" fill="#693CC5"/><path d="M39.9 32 38 32 38 28C38 27.4477 37.5523 27 37 27L34 27 34 23C34 22.4477 33.5523 22 33 22L26 22 26 19 33 19C33.5523 19 34 18.5523 34 18L34 9C34 8.44771 33.5523 8 33 8L17 8C16.4477 8 16 8.44771 16 9L16 18C16 18.5523 16.4477 19 17 19L24 19 24 22 17 22C16.4477 22 16 22.4477 16 23L16 27 13 27C12.4477 27 12 27.4477 12 28L12 32 10.1 32C9.54772 32 9.1 32.4477 9.1 33L9.1 38C9.1 38.5523 9.54772 39 10.1 39L15 39C15.5523 39 16 38.5523 16 38L16 33C16 32.4477 15.5523 32 15 32L14 32 14 29 19 29 19 32 18 32C17.4477 32 17 32.4477 17 33L17 38C17 38.5523 17.4477 39 18 39L23 39C23.5523 39 24 38.5523 24 38L24 33C24 32.4477 23.5523 32 23 32L21 32 21 28C21 27.4477 20.5523 27 20 27L18 27 18 24 32 24 32 27 30 27C29.4477 27 29 27.4477 29 28L29 32 27 32C26.4477 32 26 32.4477 26 33L26 38C26 38.5523 26.4477 39 27 39L32 39C32.5523 39 33 38.5523 33 38L33 33C33 32.4477 32.5523 32 32 32L31 32 31 29 36 29 36 32 34.93 32C34.3777 32 33.93 32.4477 33.93 33L33.93 38C33.93 38.5523 34.3777 39 34.93 39L39.93 39C40.4823 39 40.93 38.5523 40.93 38L40.93 33C40.9302 32.4477 40.4827 31.9998 39.9305 31.9995 39.9203 31.9995 39.9101 31.9997 39.9 32ZM14 37 11.1 37 11.1 34 14 34ZM22 34 22 37 19 37 19 34ZM18 17 18 10 32 10 32 17ZM31 37 28 37 28 34 31 34ZM38.9 37 35.9 37 35.9 34 38.9 34Z" fill="#693CC5"/></g></svg>