<svg width="75" height="75" viewBox="0 0 75 75" xmlns="http://www.w3.org/2000/svg" xmlns:xlink="http://www.w3.org/1999/xlink" id="Product_Icon" overflow="hidden"><rect x="0" y="0" width="75" height="75" id="Purple_Light_BG" fill="#693CC5"/><g id="Product_Icon-2"><path d="M48.51 61.5C48.2982 61.5008 48.0916 61.4342 47.92 61.31 47.6578 61.1233 47.5015 60.8219 47.5 60.5L47.5 14.5C47.5014 14.1525 47.6832 13.8307 47.98 13.65 48.2804 13.4556 48.6617 13.4366 48.98 13.6L61.98 19.95C62.3202 20.1167 62.537 20.4612 62.54 20.84L62.54 56.18C62.5621 56.6309 62.2793 57.0406 61.85 57.18L48.85 61.5C48.7372 61.5163 48.6227 61.5163 48.51 61.5ZM49.51 16.11 49.51 59.11 60.51 55.46 60.51 21.46Z" fill="#FFFFFF"/><path d="M26.5 61.5C26.3938 61.5144 26.2862 61.5144 26.18 61.5L13.18 57.18C12.7546 57.037 12.4766 56.6282 12.5 56.18L12.5 20.84C12.503 20.4612 12.7198 20.1167 13.06 19.95L26.06 13.6C26.3783 13.4366 26.7596 13.4556 27.06 13.65 27.353 13.8331 27.5307 14.1545 27.53 14.5L27.53 60.5C27.5285 60.8219 27.3722 61.1233 27.11 61.31 26.9351 61.4426 26.7193 61.5098 26.5 61.5ZM14.5 55.5 25.5 59.15 25.5 16.15 14.5 21.52Z" fill="#FFFFFF"/><path d="M47.5 27.5 44.5 27.5 44.5 25.5 47.5 25.5ZM41.5 27.5 38.5 27.5 38.5 25.5 41.5 25.5ZM35.5 27.5 32.5 27.5 32.5 25.5 35.5 25.5ZM29.5 27.5 26.5 27.5 26.5 25.5 29.5 25.5Z" fill="#FFFFFF"/><path d="M47.5 49.5 44.5 49.5 44.5 47.5 47.5 47.5ZM41.5 49.5 38.5 49.5 38.5 47.5 41.5 47.5ZM35.5 49.5 32.5 49.5 32.5 47.5 35.5 47.5ZM29.5 49.5 26.5 49.5 26.5 47.5 29.5 47.5Z" fill="#FFFFFF"/><path d="M33.11 40.94 29.35 37.73C28.9303 37.3711 28.881 36.7398 29.2399 36.3201 29.2737 36.2806 29.3105 36.2438 29.35 36.21L33.1 33 34.4 34.52 31.54 37 34.4 39.45Z" fill="#FFFFFF"/><path d="M41.9 40.94 40.6 39.42 43.46 37 40.59 34.56 41.89 33 45.65 36.2C46.0697 36.5589 46.119 37.1902 45.7601 37.6099 45.7263 37.6494 45.6895 37.6862 45.65 37.72Z" fill="#FFFFFF"/><rect x="31.29" y="36.5" width="12.41" height="2" fill="#FFFFFF" transform="matrix(0.320282 -0.947322 0.947322 0.320282 -10.04 61)"/></g></svg>