<svg width="75" height="75" viewBox="0 0 75 75" xmlns="http://www.w3.org/2000/svg" xmlns:xlink="http://www.w3.org/1999/xlink" id="Product_Icon" overflow="hidden"><defs><linearGradient x1="-15.53" y1="90.53" x2="90.53" y2="-15.53" gradientUnits="userSpaceOnUse" id="BlueGradient"><stop offset="0" stop-color="#2E27AD"/><stop offset="1" stop-color="#527FFF"/></linearGradient></defs><rect x="0" y="0" width="75" height="75" id="Blue_Gradient" fill="url(#BlueGradient)"/><g id="Icon_Test"><path d="M50.25 40.48 43.64 47.08C44.8292 46.7482 45.9766 46.2819 47.06 45.69 47.7006 46.0873 48.1353 46.745 48.25 47.49 48.25 49.32 44.37 51.31 38.61 52.12 36.8332 52.3603 35.0429 52.4872 33.25 52.5L32.25 52.5C24.17 52.31 18.25 49.76 18.25 47.5 18.3647 46.755 18.7994 46.0973 19.44 45.7 22.58 47.45 27.67 48.49 33.25 48.49L33.36 48.49 33.92 46.49C33.7 46.49 33.48 46.49 33.25 46.49 27.75 46.49 22.65 45.4 19.94 43.68 18.86 42.97 18.26 42.2 18.25 41.53L18.25 36.9C21.31 39.24 27.41 40.46 33.25 40.46 34.04 40.46 34.83 40.46 35.6 40.39L36.17 38.39C35.17 38.46 34.24 38.49 33.25 38.49 24.67 38.49 18.25 35.86 18.25 33.49 18.3647 32.745 18.7994 32.0873 19.44 31.69 22.2 33.24 26.44 34.21 31.25 34.43L31.3 32.43C26.57 32.2 22.3 31.18 19.94 29.67 18.87 28.98 18.27 28.2 18.25 27.52L18.25 22.9C21.31 25.24 27.41 26.46 33.25 26.46L33.47 26.46 34.53 24.46 33.25 24.46C24.67 24.46 18.25 21.83 18.25 19.46 18.25 17.09 24.67 14.46 33.25 14.46 36.1398 14.4478 39.0205 14.7835 41.83 15.46L47.32 15.46C44.32 13.63 39.14 12.46 33.25 12.46 25.01 12.46 16.25 14.9 16.25 19.46L16.25 27.51C16.3108 28.6633 16.86 29.7362 17.76 30.46 16.8483 31.196 16.298 32.2893 16.25 33.46L16.25 41.46C16.2967 42.6311 16.8473 43.7248 17.76 44.46 16.8483 45.196 16.298 46.2893 16.25 47.46L16.25 55.46C16.2441 55.5299 16.2441 55.6001 16.25 55.67 16.52 60.06 25.12 62.42 33.25 62.42 41.38 62.42 49.98 60.06 50.25 55.65 50.2598 55.5803 50.2598 55.5097 50.25 55.44L50.25 47.44C50.2112 46.2669 49.6591 45.17 48.74 44.44 49.6527 43.7048 50.2033 42.6111 50.25 41.44ZM48.25 55.48C48.25 57.84 41.83 60.48 33.25 60.48 24.67 60.48 18.25 57.87 18.25 55.48L18.25 50.88C21.31 53.2 27.41 54.42 33.25 54.42 39.09 54.42 45.19 53.2 48.25 50.88Z" fill="#FFFFFF"/><circle cx="21.25" cy="27.52" r="1.25" fill="#FFFFFF"/><circle cx="21.25" cy="41.52" r="1.25" fill="#FFFFFF"/><circle cx="21.25" cy="55.52" r="1.25" fill="#FFFFFF"/><path d="M35.75 51.48C35.5739 51.4782 35.4014 51.4299 35.25 51.34 34.8492 51.1092 34.6589 50.6336 34.79 50.19L40.41 31.48 34.75 31.48C34.1978 31.4871 33.7444 31.0451 33.7373 30.4929 33.7351 30.3207 33.7774 30.151 33.86 30L39.86 18C40.0294 17.6637 40.3734 17.4511 40.75 17.45L53.75 17.45C54.3016 17.4226 54.771 17.8475 54.7984 18.3991 54.8045 18.5214 54.7881 18.6437 54.75 18.76L52.19 26.45 57.8 26.45C58.3523 26.4521 58.7983 26.9015 58.7962 27.4538 58.7952 27.7094 58.6964 27.955 58.52 28.14L36.52 51.14C36.3259 51.3611 36.0442 51.4855 35.75 51.48ZM36.37 29.48 41.75 29.48C42.0648 29.48 42.3611 29.6282 42.55 29.88 42.7389 30.1318 42.7981 30.4578 42.71 30.76L37.9 46.76 55.41 28.46 50.75 28.46C50.1985 28.4893 49.7277 28.066 49.6983 27.5145 49.6916 27.3875 49.7091 27.2604 49.75 27.14L52.31 19.46 41.31 19.46Z" fill="#FFFFFF"/></g></svg>