<svg width="75" height="75" viewBox="0 0 75 75" xmlns="http://www.w3.org/2000/svg" xmlns:xlink="http://www.w3.org/1999/xlink" id="Product_Icon" overflow="hidden"><defs><linearGradient x1="37.5" y1="-37.5" x2="37.5" y2="112.5" gradientUnits="userSpaceOnUse" id="OrangeGradient" gradientTransform="matrix(-0.707107 -0.707107 0.707107 -0.707107 37.5 90.53)"><stop offset="0" stop-color="#C8511B"/><stop offset="1" stop-color="#FF9900"/></linearGradient></defs><rect x="0" y="0" width="75" height="75" id="Orange_Gradient" fill="url(#OrangeGradient)"/><g id="Icon_Test"><path d="M60.49 40.5 55.49 40.5 55.49 38.5 60.49 38.5 60.49 14.5 36.49 14.5 36.49 19.5 34.49 19.5 34.49 14.5C34.49 13.3954 35.3854 12.5 36.49 12.5L60.49 12.5C61.5946 12.5 62.49 13.3954 62.49 14.5L62.49 38.5C62.49 39.6046 61.5946 40.5 60.49 40.5Z" fill="#FFFFFF"/><path d="M38.49 62.5 14.49 62.5C13.3854 62.5 12.49 61.6046 12.49 60.5L12.49 36.5C12.49 35.3954 13.3854 34.5 14.49 34.5L19.49 34.5 19.49 36.5 14.49 36.5 14.49 60.5 38.49 60.5 38.49 55.5 40.49 55.5 40.49 60.5C40.49 61.6046 39.5946 62.5 38.49 62.5Z" fill="#FFFFFF"/><path d="M53.5 28.5 53.5 26.5 50.5 26.5C50.415 25.4326 49.5674 24.585 48.5 24.5L48.5 21.5 46.5 21.5 46.5 24.5 43.5 24.5 43.5 21.5 41.5 21.5 41.5 24.5 38.5 24.5 38.5 21.5 36.5 21.5 36.5 24.5 33.5 24.5 33.5 21.5 31.5 21.5 31.5 24.5 28.5 24.5 28.5 21.5 26.5 21.5 26.5 24.5C25.4326 24.585 24.585 25.4326 24.5 26.5L21.5 26.5 21.5 28.5 24.5 28.5 24.5 31.5 21.5 31.5 21.5 33.5 24.5 33.5 24.5 36.5 21.5 36.5 21.5 38.5 24.5 38.5 24.5 41.5 21.5 41.5 21.5 43.5 24.5 43.5 24.5 46.5 21.5 46.5 21.5 48.5 24.5 48.5C24.585 49.5674 25.4326 50.415 26.5 50.5L26.5 53.5 28.5 53.5 28.5 50.5 31.5 50.5 31.5 53.5 33.5 53.5 33.5 50.5 36.5 50.5 36.5 53.5 38.5 53.5 38.5 50.5 41.5 50.5 41.5 53.5 43.5 53.5 43.5 50.5 46.5 50.5 46.5 53.5 48.5 53.5 48.5 50.5C49.5674 50.415 50.415 49.5674 50.5 48.5L53.5 48.5 53.5 46.5 50.5 46.5 50.5 43.5 53.5 43.5 53.5 41.5 50.5 41.5 50.5 38.5 53.5 38.5 53.5 36.5 50.5 36.5 50.5 33.5 53.5 33.5 53.5 31.5 50.5 31.5 50.5 28.5ZM48.5 48.32C48.5 48.4194 48.4194 48.5 48.32 48.5L26.68 48.5C26.5806 48.5 26.5 48.4194 26.5 48.32L26.5 26.68C26.5 26.5806 26.5806 26.5 26.68 26.5L48.32 26.5C48.4194 26.5 48.5 26.5806 48.5 26.68Z" fill="#FFFFFF"/></g></svg>