<svg viewBox="0 0 50 50" xmlns="http://www.w3.org/2000/svg" xmlns:xlink="http://www.w3.org/1999/xlink" overflow="hidden"><defs></defs><g id="Reference"><path d="M25.5 15.19C19.7509 15.2397 15.1307 19.9405 15.1804 25.6896 15.2301 31.4387 19.9309 36.0589 25.68 36.0092 31.3977 35.9598 36.0053 31.3079 36 25.59 35.9669 19.8209 31.2691 15.1678 25.5 15.19ZM25.5 34C20.8556 33.9503 17.1308 30.1449 17.1805 25.5005 17.2302 20.856 21.0356 17.1313 25.68 17.181 30.2892 17.2303 33.9997 20.9806 34 25.59 33.9725 30.2584 30.1685 34.0222 25.5 34Z" fill="#693CC5"/><path d="M25 0C11.1929 0 0 11.1929 0 25 0 38.8071 11.1929 50 25 50 38.8071 50 50 38.8071 50 25 50 11.1929 38.8071 0 25 0ZM25 48C12.2975 48 2 37.7025 2 25 2 12.2975 12.2975 2 25 2 37.7025 2 48 12.2975 48 25 48 37.7025 37.7025 48 25 48Z" fill="#693CC5"/><path d="M38.71 13.29 32.71 7.29C32.5213 7.10281 32.2658 6.99846 32 7L13 7C12.4477 7 12 7.44771 12 8L12 41C12 41.5523 12.4477 42 13 42L38 42C38.5523 42 39 41.5523 39 41L39 14C39.0015 13.7342 38.8972 13.4787 38.71 13.29ZM33 10.41 35.59 13 33 13ZM37 40 14 40 14 9 31 9 31 14C31 14.5523 31.4477 15 32 15L37 15Z" fill="#693CC5"/><path d="M28.5 26.55C27.7884 26.5523 27.1008 26.8075 26.56 27.27L23.47 25.55 23.47 25.5C23.4802 25.3836 23.4802 25.2664 23.47 25.15L26.55 23.61C27.0862 24.1272 27.8052 24.4112 28.55 24.4 30.1516 24.4 31.45 23.1016 31.45 21.5 31.45 19.8984 30.1516 18.6 28.55 18.6 26.9484 18.6 25.65 19.8984 25.65 21.5 25.65 21.61 25.65 21.72 25.65 21.83L22.58 23.37C21.4019 22.205 19.5024 22.2156 18.3374 23.3938 17.1724 24.5719 17.1831 26.4713 18.3612 27.6363 19.5393 28.8013 21.4388 28.7907 22.6038 27.6126 22.6616 27.554 22.7171 27.4931 22.77 27.43L25.58 29C25.5599 29.1627 25.5599 29.3273 25.58 29.49 25.5524 31.1466 26.873 32.512 28.5296 32.5396 30.1862 32.5672 31.5516 31.2466 31.5792 29.59 31.6068 27.9334 30.2862 26.568 28.6296 26.5404 28.6131 26.5401 28.5965 26.54 28.58 26.54ZM28.5 20.6C28.9971 20.6 29.4 21.0029 29.4 21.5 29.4 21.9971 28.9971 22.4 28.5 22.4 28.0029 22.4 27.6 21.9971 27.6 21.5 27.6 21.0029 28.0029 20.6 28.5 20.6ZM20.5 26.45C19.9477 26.4493 19.5006 26.001 19.5013 25.4488 19.5019 24.8965 19.9502 24.4493 20.5025 24.45 21.0548 24.4507 21.5019 24.899 21.5012 25.4513 21.5012 25.4675 21.5008 25.4838 21.5 25.5 21.4733 26.0327 21.0333 26.4507 20.5 26.45ZM28.5 30.45C27.9477 30.4493 27.5006 30.001 27.5013 29.4488 27.5019 28.8965 27.9502 28.4493 28.5025 28.45 29.0548 28.4507 29.5019 28.899 29.5012 29.4513 29.5012 29.4675 29.5008 29.4838 29.5 29.5 29.4733 30.0327 29.0333 30.4507 28.5 30.45Z" fill="#693CC5"/></g></svg>