<svg width="50" height="50" viewBox="0 0 50 50" xmlns="http://www.w3.org/2000/svg" xmlns:xlink="http://www.w3.org/1999/xlink" id="Layer_1" overflow="hidden"><path d="M25 48.5C12.0213 48.5 1.5 37.9787 1.5 25 1.5 12.0213 12.0213 1.5 25 1.5 37.9787 1.5 48.5 12.0213 48.5 25 48.489 37.9741 37.9741 48.489 25 48.5ZM25 3.5C13.1259 3.5 3.5 13.1259 3.5 25 3.5 36.8741 13.1259 46.5 25 46.5 36.8741 46.5 46.5 36.8741 46.5 25 46.489 13.1304 36.8696 3.51103 25 3.5Z" fill="#693CC5"/><path d="M36.25 39.12 32.49 39.12C31.9377 39.12 31.49 38.6723 31.49 38.12L31.49 18.72C29.5541 17.7245 27.4164 17.1841 25.24 17.14 22.8711 17.1845 20.5482 17.8021 18.47 18.94L18.47 38.12C18.47 38.6723 18.0223 39.12 17.47 39.12L13.75 39.12C13.1977 39.12 12.75 38.6723 12.75 38.12L12.75 16.3C12.7504 16.0128 12.8742 15.7396 13.09 15.55 16.5137 12.7496 20.8282 11.27 25.25 11.38 29.4258 11.3059 33.5097 12.6098 36.87 15.09 37.1115 15.2808 37.2517 15.5722 37.25 15.88L37.25 38.12C37.25 38.6723 36.8023 39.12 36.25 39.12ZM33.49 37.12 35.25 37.12 35.25 16.37C32.3086 14.3569 28.8138 13.3084 25.25 13.37 21.4685 13.2773 17.7673 14.4687 14.75 16.75L14.75 37.12 16.47 37.12 16.47 18.32C16.4674 17.9398 16.6805 17.5911 17.02 17.42 19.5308 15.9955 22.3542 15.2124 25.24 15.14 27.8839 15.213 30.475 15.8975 32.81 17.14L32.91 17.14C33.2645 17.304 33.491 17.6594 33.49 18.05Z" fill="#693CC5"/><path d="M212 204 61 204 55.55 271.5-83 271.5-90-354 212-354 212 204Z" stroke="#A166FF" stroke-width="3" stroke-miterlimit="10" fill="none"/></svg>