<svg width="50" height="50" viewBox="0 0 50 50" xmlns="http://www.w3.org/2000/svg" xmlns:xlink="http://www.w3.org/1999/xlink" id="Layer_1" overflow="hidden"><path d="M30.62 32.56 19.37 32.56C18.8177 32.56 18.37 32.1123 18.37 31.56L18.37 22.19C18.37 21.6377 18.8177 21.19 19.37 21.19L30.63 21.19C31.1823 21.19 31.63 21.6377 31.63 22.19L31.63 31.56C31.63 32.1123 31.1823 32.56 30.63 32.56ZM20.38 30.56 29.62 30.56 29.62 23.19 20.38 23.19Z" fill="#693CC5"/><path d="M28.81 22.19 26.81 22.19 26.81 19.72C26.8193 19.1323 26.617 18.5609 26.24 18.11 25.9354 17.7424 25.4872 17.5238 25.01 17.51L25.01 17.51C23.9094 17.604 23.0935 18.5724 23.1875 19.673 23.1883 19.682 23.1891 19.691 23.19 19.7L23.19 22.18 21.19 22.18 21.19 19.69C21.0882 17.4838 22.7938 15.6126 25 15.51L25 15.51C26.0545 15.5218 27.0513 15.9929 27.73 16.8 28.4265 17.6161 28.8031 18.6572 28.79 19.73Z" fill="#693CC5"/><path d="M25 48.5C12.0213 48.5 1.5 37.9787 1.5 25 1.5 12.0213 12.0213 1.5 25 1.5 37.9787 1.5 48.5 12.0213 48.5 25 48.489 37.9741 37.9741 48.489 25 48.5ZM25 3.5C13.1259 3.5 3.5 13.1259 3.5 25 3.5 36.8741 13.1259 46.5 25 46.5 36.8741 46.5 46.5 36.8741 46.5 25 46.489 13.1304 36.8696 3.51103 25 3.5Z" fill="#693CC5"/><path d="M7.19 29.88C7.04076 29.8813 6.89336 29.847 6.76 29.78 6.41272 29.6146 6.19109 29.2647 6.19 28.88L6.19 21.12C6.19109 20.7353 6.41272 20.3854 6.76 20.22 7.1115 20.051 7.52921 20.1017 7.83 20.35L12.48 24.23C12.9053 24.5824 12.9643 25.2128 12.612 25.638 12.5722 25.686 12.528 25.7302 12.48 25.77L7.83 29.65C7.65009 29.7991 7.42365 29.8805 7.19 29.88ZM8.19 23.26 8.19 26.74 10.28 25Z" fill="#693CC5"/><path d="M42.81 29.88C42.5763 29.8805 42.3499 29.7991 42.17 29.65L37.52 25.77C37.0947 25.4176 37.0357 24.7872 37.388 24.362 37.4278 24.314 37.472 24.2698 37.52 24.23L42.17 20.35C42.4708 20.1017 42.8885 20.051 43.24 20.22 43.5873 20.3854 43.8089 20.7353 43.81 21.12L43.81 28.88C43.8089 29.2647 43.5873 29.6146 43.24 29.78 43.1066 29.847 42.9592 29.8813 42.81 29.88ZM39.72 25 41.81 26.74 41.81 23.26Z" fill="#693CC5"/><rect x="13.69" y="12.81" width="2" height="24.38" fill="#693CC5"/><rect x="34.31" y="12.81" width="2" height="24.38" fill="#693CC5"/><path d="M212 134 61 134 55.55 201.5-83 201.5-90-424 212-424 212 134Z" stroke="#A166FF" stroke-width="3" stroke-miterlimit="10" fill="none"/></svg>