<svg viewBox="0 0 50 50" xmlns="http://www.w3.org/2000/svg" xmlns:xlink="http://www.w3.org/1999/xlink" overflow="hidden"><defs></defs><g id="Reference"><path d="M25 0C11.1929 0 0 11.1929 0 25 0 38.8071 11.1929 50 25 50 38.8071 50 50 38.8071 50 25 50 11.1929 38.8071 0 25 0ZM25 48C12.2975 48 2 37.7025 2 25 2 12.2975 12.2975 2 25 2 37.7025 2 48 12.2975 48 25 48 37.7025 37.7025 48 25 48Z" fill="#693CC5"/><path d="M16 31 6 31C5.44771 31 5 30.5523 5 30L5 20C5 19.4477 5.44771 19 6 19L16 19C16.5523 19 17 19.4477 17 20L17 30C17 30.5523 16.5523 31 16 31ZM7 29 15 29 15 21 7 21Z" fill="#693CC5"/><path d="M39 18 33 18C32.4477 18 32 17.5523 32 17L32 11C32 10.4477 32.4477 10 33 10L39 10C39.5523 10 40 10.4477 40 11L40 17C40 17.5523 39.5523 18 39 18ZM34 16 38 16 38 12 34 12Z" fill="#693CC5"/><path d="M39 29 33 29C32.4477 29 32 28.5523 32 28L32 22C32 21.4477 32.4477 21 33 21L39 21C39.5523 21 40 21.4477 40 22L40 28C40 28.5523 39.5523 29 39 29ZM34 27 38 27 38 23 34 23Z" fill="#693CC5"/><path d="M39 40 33 40C32.4477 40 32 39.5523 32 39L32 33C32 32.4477 32.4477 32 33 32L39 32C39.5523 32 40 32.4477 40 33L40 39C40 39.5523 39.5523 40 39 40ZM34 38 38 38 38 34 34 34Z" fill="#693CC5"/><path d="M30.71 25.71 27.34 29.07 25.93 27.66 27.59 26 19 26 19 24 27.59 24 25.93 22.34 27.34 20.93 30.71 24.29C31.1021 24.6789 31.1047 25.3121 30.7158 25.7042 30.7139 25.7061 30.7119 25.7081 30.71 25.71Z" fill="#693CC5"/><path d="M30.16 14.51 28.92 19.1 27 18.58 27.64 16.2 18.77 20.88 17.84 19.12 26.5 14.55 24.34 14 24.87 12 29.46 13.24C29.9943 13.3798 30.3141 13.9263 30.1743 14.4606 30.17 14.4772 30.1652 14.4936 30.16 14.51Z" fill="#693CC5"/><path d="M29.46 36.72 24.87 38 24.34 36 26.49 35.41 17.83 30.84 18.76 29.08 27.63 33.76 27 31.42 28.93 30.9 30.17 35.49C30.3153 36.0228 30.0011 36.5725 29.4682 36.7178 29.4655 36.7185 29.4627 36.7193 29.46 36.72Z" fill="#693CC5"/></g></svg>