<svg width="75" height="75" viewBox="0 0 75 75" xmlns="http://www.w3.org/2000/svg" xmlns:xlink="http://www.w3.org/1999/xlink" id="Product_Icon" overflow="hidden"><rect x="0" y="0" width="75" height="75" id="Purple_Light_BG" fill="#693CC5"/><g id="Product_Icon-2"><path d="M27.29 42.94C28.5508 43.3869 29.873 43.6365 31.21 43.68 32.0689 43.7499 32.9243 43.5086 33.62 43 34.1789 42.4889 34.4828 41.7566 34.45 41 34.5236 40.2118 34.2369 39.4325 33.67 38.88 32.9161 38.3762 32.0135 38.1435 31.11 38.22 30.0405 38.2297 28.9724 38.2964 27.91 38.42L27.91 37 28.3 30.83 35.83 30.83 35.83 32.5 30 32.5 29.73 36.69C30.3893 36.5631 31.0587 36.4962 31.73 36.49 33.0008 36.4148 34.2514 36.834 35.22 37.66 36.0812 38.5113 36.5363 39.6909 36.47 40.9 36.5148 42.157 35.9758 43.3642 35.01 44.17 33.9175 45.041 32.5457 45.4853 31.15 45.42 29.7925 45.4271 28.4492 45.1441 27.21 44.59Z" fill="#FFFFFF"/><path d="M43.63 36.94 43.84 36.94 44 36.94C45.1891 36.857 46.3644 37.2367 47.28 38 48.1029 38.7741 48.542 39.872 48.48 41 48.5118 42.2418 47.965 43.4278 47 44.21 45.8788 45.0591 44.4949 45.4874 43.09 45.42 41.7696 45.4122 40.4652 45.1296 39.26 44.59L39.26 42.94C40.4896 43.3872 41.7823 43.6369 43.09 43.68 43.9538 43.7378 44.8104 43.49 45.51 42.98 46.0872 42.4813 46.398 41.7413 46.35 40.98 46.35 39.32 45.3 38.49 43.2 38.49 42.532 38.4864 41.8643 38.5198 41.2 38.59L41.2 37.23 45.53 32.5 39.48 32.5 39.48 30.81 47.88 30.81 47.88 32.44Z" fill="#FFFFFF"/><path d="M37.5 56.5C37.3239 56.4982 37.1514 56.4499 37 56.36 33.7591 54.4414 30.2151 53.0887 26.52 52.36 24.41 51.98 17.52 50.36 17.52 45.36 17.52 43.1 18.39 41.6 19.52 39.7 21.1758 37.2719 22.115 34.4267 22.23 31.49 22.2196 28.6722 21.393 25.9178 19.85 23.56 19.6184 23.1958 19.6466 22.724 19.92 22.39L21.52 20.39C21.8278 20.0104 22.3649 19.9089 22.79 20.15 24.8417 21.3411 27.1677 21.9786 29.54 22 32.1852 22.0384 34.7726 21.225 36.92 19.68 37.2672 19.4328 37.7328 19.4328 38.08 19.68 40.2274 21.225 42.8148 22.0384 45.46 22 47.84 21.979 50.1734 21.338 52.23 20.14 52.6551 19.8989 53.1922 20.0004 53.5 20.38L55.1 22.38C55.3734 22.714 55.4016 23.1858 55.17 23.55 53.626 25.9073 52.7992 28.662 52.79 31.48 52.79 35.03 54.23 37.48 55.49 39.69 56.6 41.59 57.49 43.09 57.49 45.35 57.49 50.35 50.61 52 48.49 52.35 44.7949 53.0787 41.2509 54.4314 38.01 56.35 37.8566 56.4451 37.6804 56.4969 37.5 56.5ZM21.9 23C23.4079 25.5355 24.2058 28.43 24.21 31.38 24.21 35.47 22.56 38.31 21.21 40.59 20.21 42.36 19.51 43.53 19.51 45.25 19.51 48.81 25.62 50.09 26.85 50.31 30.5881 51.0536 34.179 52.4049 37.48 54.31 40.781 52.4049 44.3719 51.0536 48.11 50.31 49.34 50.09 55.45 48.81 55.45 45.25 55.45 43.53 54.77 42.36 53.75 40.59 52.42 38.31 50.75 35.47 50.75 31.38 50.7663 28.4263 51.5781 25.5315 53.1 23L52.47 22.22C50.3051 23.3376 47.9064 23.927 45.47 23.94 42.6353 23.9758 39.8528 23.1759 37.47 21.64 35.0872 23.1759 32.3047 23.9758 29.47 23.94 27.0336 23.927 24.6349 23.3376 22.47 22.22Z" fill="#FFFFFF"/><path d="M37.5 62.5C37.271 62.501 37.0486 62.4233 36.87 62.28 33.506 59.8535 29.6753 58.151 25.62 57.28 17.4 55.8 12.49 51.28 12.49 45.28 12.5708 42.3526 13.4906 39.5099 15.14 37.09 16.23 35.22 17.14 33.6 17.14 31.41 17.0173 28.4769 15.7025 25.7209 13.5 23.78 13.0565 23.4508 12.9638 22.8245 13.293 22.381 13.3139 22.3529 13.3363 22.3258 13.36 22.3 13.36 22.23 19.23 15.19 20.56 13.36 20.7404 13.1062 21.0288 12.9509 21.34 12.94 21.6481 12.9142 21.9508 13.0323 22.16 13.26 23.9998 15.4422 26.6599 16.7667 29.51 16.92 32.3 16.92 34.51 15.68 36.64 12.92 37.0216 12.4616 37.7026 12.3994 38.161 12.781 38.2115 12.823 38.258 12.8695 38.3 12.92 40.44 15.72 42.64 16.92 45.43 16.92 48.2801 16.7667 50.9402 15.4422 52.78 13.26 52.9892 13.0323 53.2919 12.9142 53.6 12.94 53.9112 12.9509 54.1996 13.1062 54.38 13.36 55.71 15.19 61.53 22.23 61.58 22.3 61.7645 22.5116 61.8516 22.791 61.82 23.07 61.7886 23.3465 61.6527 23.6005 61.44 23.78 59.2375 25.7209 57.9227 28.4769 57.8 31.41 57.8 33.6 58.74 35.22 59.8 37.09 61.4494 39.5099 62.3692 42.3526 62.45 45.28 62.45 51.28 57.54 55.8 49.32 57.28 45.2655 58.1442 41.4368 59.8474 38.08 62.28 37.9149 62.413 37.7118 62.49 37.5 62.5ZM15.61 22.89C17.8714 25.162 19.1743 28.2153 19.25 31.42 19.25 34.17 18.08 36.19 16.95 38.14 15.73 40.25 14.57 42.23 14.57 45.29 14.57 52.61 23.31 54.75 25.99 55.23 30.12 56.0854 34.0348 57.7656 37.5 60.17 40.9622 57.7668 44.8735 56.0867 49 55.23 51.68 54.75 60.42 52.61 60.42 45.29 60.42 42.23 59.26 40.29 58.04 38.14 56.91 36.14 55.74 34.14 55.74 31.42 55.8157 28.2153 57.1186 25.162 59.38 22.89 58.07 21.3 55.04 17.61 53.45 15.56 51.3157 17.6819 48.4578 18.9179 45.45 19.02 42.3323 19.0289 39.3832 17.6059 37.45 15.16 35.5168 17.6059 32.5677 19.0289 29.45 19.02 26.4422 18.9179 23.5843 17.6819 21.45 15.56 20 17.61 16.92 21.3 15.61 22.89Z" fill="#FFFFFF"/></g></svg>