<svg width="50" height="50" viewBox="0 0 50 50" xmlns="http://www.w3.org/2000/svg" xmlns:xlink="http://www.w3.org/1999/xlink" id="Layer_1" overflow="hidden"><path d="M25 48.5C12.0213 48.5 1.5 37.9787 1.5 25 1.5 12.0213 12.0213 1.5 25 1.5 37.9787 1.5 48.5 12.0213 48.5 25 48.489 37.9741 37.9741 48.489 25 48.5ZM25 3.5C13.1259 3.5 3.5 13.1259 3.5 25 3.5 36.8741 13.1259 46.5 25 46.5 36.8741 46.5 46.5 36.8741 46.5 25 46.489 13.1304 36.8696 3.51103 25 3.5Z" fill="#693CC5"/><path d="M29 11.64 25 7.64 21 11.64 19.59 10.23 24.27 5.54C24.6589 5.14788 25.2921 5.14528 25.6842 5.5342 25.6861 5.53613 25.6881 5.53806 25.69 5.54L30.37 10.23Z" fill="#693CC5"/><rect x="24" y="7" width="2" height="36" fill="#693CC5"/><path d="M25 44.75C24.7342 44.7515 24.4787 44.6472 24.29 44.46L19.61 39.77 21 38.36 25 42.36 29 38.36 30.41 39.77 25.73 44.46C25.5364 44.6522 25.2727 44.7569 25 44.75Z" fill="#693CC5"/><path d="M39.77 30.39 38.36 29 42.36 25 38.36 21 39.77 19.59 44.46 24.27C44.8521 24.6589 44.8547 25.2921 44.4658 25.6842 44.4639 25.6861 44.4619 25.6881 44.46 25.69Z" fill="#693CC5"/><rect x="7" y="24" width="36" height="2" fill="#693CC5"/><path d="M10.23 30.39 5.54 25.71C5.14788 25.3211 5.14528 24.6879 5.5342 24.2958 5.53613 24.2939 5.53806 24.2919 5.54 24.29L10.23 19.61 11.65 21 7.65 25 11.65 29Z" fill="#693CC5"/><path d="M72 414-79 414-84.45 481.5-223 481.5-230-144 72-144 72 414Z" stroke="#A166FF" stroke-width="3" stroke-miterlimit="10" fill="none"/></svg>